<svg width="413" height="413" viewBox="0 0 413 413" fill="none" xmlns="http://www.w3.org/2000/svg">
    <path d="M206.373 17.6292C113.645 17.6292 32.5226 86.1683 19.438 180.56C12.5062 230.522 25.4521 280.2 55.8795 320.437C86.3134 360.662 130.591 386.639 180.56 393.565C230.522 400.496 280.2 387.55 320.431 357.116C360.668 326.689 386.639 282.411 393.564 232.436C400.496 182.474 387.55 132.803 357.116 92.5654C326.689 52.3344 282.411 26.3632 232.443 19.438C223.682 18.2167 214.975 17.6292 206.373 17.6292ZM206.934 413C197.381 413 187.769 412.333 178.144 411C123.514 403.428 75.1103 375.033 41.8442 331.053C8.5715 287.072 -5.58252 232.766 1.99627 178.144C9.56845 123.514 37.9624 75.1104 81.9497 41.8377C125.93 8.57162 180.23 -5.58247 234.859 1.99632C289.482 9.5751 337.892 37.9625 371.158 81.9498C404.424 125.931 418.578 180.236 411.006 234.866C403.428 289.488 375.033 337.892 331.053 371.158C294.822 398.569 251.581 413 206.934 413Z" fill="#1DB4BA"/>
    <path d="M206.399 60.7385C134.836 60.7385 72.2321 113.625 62.1249 186.482C56.7775 225.042 66.7658 263.378 90.2547 294.433C113.744 325.481 147.914 345.524 186.482 350.871C225.042 356.219 263.378 346.23 294.433 322.741C325.481 299.259 345.53 265.088 350.878 226.521C356.225 187.954 346.237 149.624 322.748 118.57C299.259 87.5151 265.088 67.4722 226.521 62.1314C219.761 61.1874 213.04 60.7385 206.399 60.7385ZM206.835 365.87C199.461 365.87 192.047 365.362 184.613 364.332C142.455 358.483 105.095 336.572 79.4148 302.626C53.7406 268.686 42.8213 226.772 48.6639 184.607C54.513 142.455 76.4241 105.096 110.37 79.4214C144.316 53.7407 186.231 42.8214 228.389 48.6705C270.548 54.513 307.907 76.4308 333.581 110.37C359.262 144.316 370.181 186.224 364.332 228.389C358.483 270.548 336.572 307.907 302.626 333.581C274.667 354.733 241.296 365.87 206.835 365.87Z" fill="#fccb06"/>
    <path d="M206.438 115.942C161.976 115.942 123.085 148.805 116.807 194.06C113.486 218.018 119.692 241.837 134.282 261.127C148.871 280.417 170.103 292.875 194.06 296.196C218.018 299.516 241.837 293.311 261.127 278.714C280.417 264.124 292.875 242.893 296.195 218.942C299.516 194.985 293.311 171.159 278.721 151.869C264.124 132.585 242.9 120.128 218.935 116.807C214.743 116.226 210.564 115.942 206.438 115.942ZM206.709 305.511C202.128 305.511 197.519 305.194 192.898 304.553C166.709 300.929 143.504 287.31 127.548 266.224C111.598 245.131 104.811 219.094 108.442 192.898C112.073 166.709 125.693 143.504 146.779 127.548C167.865 111.598 193.902 104.805 220.097 108.442C246.286 112.073 269.498 125.693 285.448 146.779C301.404 167.865 308.191 193.908 304.56 220.097C300.922 246.287 287.31 269.498 266.217 285.455C248.848 298.592 228.112 305.511 206.709 305.511Z" fill="#1DB4BA"/>
    <path d="M206.471 164.24C185.729 164.24 167.581 179.583 164.649 200.695C163.098 211.872 165.996 222.989 172.803 231.987C179.616 240.985 189.518 246.795 200.695 248.353C211.872 249.898 222.989 247.006 231.987 240.193C240.992 233.387 246.795 223.484 248.346 212.308C249.898 201.124 247.006 190.014 240.193 181.009C233.387 172.011 223.484 166.201 212.301 164.65C210.347 164.379 208.399 164.24 206.471 164.24ZM206.597 252.697C204.458 252.697 202.312 252.545 200.154 252.248C187.934 250.558 177.107 244.207 169.66 234.364C162.22 224.521 159.051 212.374 160.748 200.154C162.444 187.934 168.795 177.107 178.639 169.667C188.475 162.22 200.622 159.051 212.842 160.748C225.068 162.445 235.895 168.796 243.336 178.632C250.782 188.475 253.944 200.622 252.254 212.849C250.558 225.062 244.2 235.895 234.364 243.336C226.257 249.469 216.585 252.697 206.597 252.697Z" fill="#fccb06"/>
</svg>
