<svg width="488" height="502" viewBox="0 0 488 502" fill="none" xmlns="http://www.w3.org/2000/svg">
    <mask id="mask0_0_1" style="mask-type:luminance" maskUnits="userSpaceOnUse" x="0" y="0" width="481" height="481">
    <path d="M480.23 239.956C480.318 372.57 372.884 480.142 240.274 480.233C107.66 480.321 0.0878595 372.887 5.37862e-05 240.274C-0.0877519 107.663 107.343 0.0879014 239.956 9.5625e-05C372.566 -0.0877101 480.142 107.346 480.23 239.956Z" fill="white"/>
    </mask>
    <g mask="url(#mask0_0_1)">
    <path d="M18.9762 407.834L14.6365 412.177L-2.01619 395.548L2.32347 391.205L18.9762 407.834Z" fill="#1DB4BA"/>
    <path d="M14.6228 391.195L18.9658 395.538L2.33684 412.187L-2.00958 407.848L14.6228 391.195Z" fill="#1DB4BA"/>
    <path d="M19.0031 451.835L14.6667 456.181L-1.98589 439.549L2.3504 435.206L19.0031 451.835Z" fill="#1DB4BA"/>
    <path d="M14.6532 435.196L18.9964 439.535L2.36393 456.188L-1.97911 451.848L14.6532 435.196Z" fill="#1DB4BA"/>
    <path d="M19.0334 492.766L14.6938 497.109L-1.95886 480.48L2.37742 476.133L19.0334 492.766Z" fill="#1DB4BA"/>
    <path d="M14.6802 476.127L19.0234 480.463L2.39423 497.119L-1.95219 492.779L14.6802 476.127Z" fill="#1DB4BA"/>
    <path d="M18.8916 277.487L14.552 281.833L-2.10074 265.2L2.23546 260.858L18.8916 277.487Z" fill="#1DB4BA"/>
    <path d="M14.5385 260.847L18.8814 265.187L2.24901 281.84L-2.09395 277.5L14.5385 260.847Z" fill="#1DB4BA"/>
    <path d="M18.9187 321.487L14.579 325.83L-2.07031 309.201L2.26597 304.855L18.9187 321.487Z" fill="#1DB4BA"/>
    <path d="M14.5688 304.848L18.912 309.188L2.27952 325.84L-2.06352 321.501L14.5688 304.848Z" fill="#1DB4BA"/>
    <path d="M18.9455 362.415L14.606 366.761L-2.04329 350.129L2.29299 345.786L18.9455 362.415Z" fill="#1DB4BA"/>
    <path d="M14.5925 345.776L18.9389 350.115L2.3065 366.768L-2.03662 362.432L14.5925 345.776Z" fill="#1DB4BA"/>
    <path d="M18.8005 147.139L14.4643 151.482L-2.18517 134.853L2.15103 130.51L18.8005 147.139Z" fill="#1DB4BA"/>
    <path d="M14.4508 130.5L18.797 134.839L2.16459 151.489L-2.17838 147.152L14.4508 130.5Z" fill="#1DB4BA"/>
    <path d="M18.8308 191.14L14.4946 195.483L-2.16153 178.85L2.18151 174.507L18.8308 191.14Z" fill="#1DB4BA"/>
    <path d="M14.4811 174.5L18.824 178.837L2.19507 195.489L-2.15135 191.153L14.4811 174.5Z" fill="#1DB4BA"/>
    <path d="M18.8579 232.067L14.5217 236.41L-2.13104 219.781L2.20516 215.435L18.8579 232.067Z" fill="#1DB4BA"/>
    <path d="M14.5082 215.428L18.8511 219.768L2.21871 236.42L-2.12425 232.081L14.5082 215.428Z" fill="#1DB4BA"/>
    <path d="M18.716 16.7912L14.3798 21.1343L-2.27298 4.50184L2.0633 0.158801L18.716 16.7912Z" fill="#1DB4BA"/>
    <path d="M14.3663 0.152198L18.7093 4.49178L2.07684 21.1411L-2.2662 16.8048L14.3663 0.152198Z" fill="#1DB4BA"/>
    <path d="M18.7463 60.7888L14.4101 65.1352L-2.24596 48.5028L2.09362 44.1597L18.7463 60.7888Z" fill="#1DB4BA"/>
    <path d="M14.3933 44.1495L18.7397 48.4891L2.10724 65.1418L-2.23572 60.8022L14.3933 44.1495Z" fill="#1DB4BA"/>
    <path d="M18.7734 101.72L14.4372 106.063L-2.21547 89.4337L2.12073 85.0873L18.7734 101.72Z" fill="#1DB4BA"/>
    <path d="M14.4236 85.0806L18.7666 89.4201L2.13416 106.073L-2.2088 101.733L14.4236 85.0806Z" fill="#1DB4BA"/>
    <path d="M65.2496 407.804L60.9133 412.15L44.2607 395.521L48.6002 391.175L65.2496 407.804Z" fill="#1DB4BA"/>
    <path d="M60.8966 391.168L65.243 395.504L48.6139 412.157L44.2709 407.817L60.8966 391.168Z" fill="#1DB4BA"/>
    <path d="M108.997 407.777L104.654 412.12L88.0049 395.491L92.3411 391.148L108.997 407.777Z" fill="#1DB4BA"/>
    <path d="M104.641 391.138L108.987 395.477L92.358 412.13L88.0115 407.787L104.641 391.138Z" fill="#1DB4BA"/>
    <path d="M152.738 407.746L148.398 412.093L131.749 395.46L136.085 391.117L152.738 407.746Z" fill="#1DB4BA"/>
    <path d="M148.388 391.107L152.731 395.447L136.099 412.099L131.756 407.763L148.388 391.107Z" fill="#1DB4BA"/>
    <path d="M196.482 407.719L192.146 412.062L175.49 395.43L179.829 391.087L196.482 407.719Z" fill="#1DB4BA"/>
    <path d="M192.129 391.08L196.475 395.416L179.843 412.069L175.5 407.733L192.129 391.08Z" fill="#1DB4BA"/>
    <path d="M240.226 407.689L235.887 412.032L219.234 395.403L223.574 391.057L240.226 407.689Z" fill="#1DB4BA"/>
    <path d="M235.873 391.05L240.216 395.389L223.587 412.042L219.244 407.702L235.873 391.05Z" fill="#1DB4BA"/>
    <path d="M65.28 451.805L60.9403 456.148L44.2876 439.518L48.6308 435.175L65.28 451.805Z" fill="#1DB4BA"/>
    <path d="M60.9268 435.165L65.2699 439.505L48.6408 456.158L44.2978 451.818L60.9268 435.165Z" fill="#1DB4BA"/>
    <path d="M109.024 451.774L104.685 456.121L88.032 439.488L92.3716 435.145L109.024 451.774Z" fill="#1DB4BA"/>
    <path d="M104.671 435.135L109.014 439.475L92.3852 456.127L88.0388 451.791L104.671 435.135Z" fill="#1DB4BA"/>
    <path d="M152.765 451.747L148.429 456.09L131.779 439.458L136.116 435.115L152.765 451.747Z" fill="#1DB4BA"/>
    <path d="M148.415 435.108L152.762 439.448L136.129 456.097L131.786 451.761L148.415 435.108Z" fill="#1DB4BA"/>
    <path d="M196.512 451.717L192.169 456.06L175.52 439.434L179.86 435.084L196.512 451.717Z" fill="#1DB4BA"/>
    <path d="M192.159 435.081L196.502 439.417L179.873 456.07L175.53 451.73L192.159 435.081Z" fill="#1DB4BA"/>
    <path d="M240.257 451.69L235.917 456.033L219.264 439.404L223.6 435.061L240.257 451.69Z" fill="#1DB4BA"/>
    <path d="M235.903 435.051L240.246 439.39L223.617 456.043L219.271 451.7L235.903 435.051Z" fill="#1DB4BA"/>
    <path d="M65.3072 492.735L60.971 497.079L44.3148 480.446L48.6544 476.103L65.3072 492.735Z" fill="#1DB4BA"/>
    <path d="M60.954 476.096L65.3004 480.433L48.668 497.085L44.325 492.749L60.954 476.096Z" fill="#1DB4BA"/>
    <path d="M109.051 492.705L104.712 497.048L88.0589 480.419L92.3951 476.073L109.051 492.705Z" fill="#1DB4BA"/>
    <path d="M104.698 476.066L109.041 480.402L92.4119 497.058L88.0657 492.719L104.698 476.066Z" fill="#1DB4BA"/>
    <path d="M152.792 492.675L148.456 497.018L131.803 480.392L136.143 476.046L152.792 492.675Z" fill="#1DB4BA"/>
    <path d="M148.442 476.036L152.785 480.379L136.156 497.028L131.81 492.688L148.442 476.036Z" fill="#1DB4BA"/>
    <path d="M196.536 492.644L192.2 496.994L175.547 480.362L179.887 476.019L196.536 492.644Z" fill="#1DB4BA"/>
    <path d="M192.183 476.009L196.529 480.348L179.9 497.001L175.557 492.661L192.183 476.009Z" fill="#1DB4BA"/>
    <path d="M240.284 492.621L235.941 496.964L219.291 480.331L223.631 475.988L240.284 492.621Z" fill="#1DB4BA"/>
    <path d="M235.927 475.982L240.273 480.318L223.645 496.97L219.301 492.634L235.927 475.982Z" fill="#1DB4BA"/>
    <path d="M65.1653 277.456L60.8256 281.799L44.1729 265.17L48.5126 260.827L65.1653 277.456Z" fill="#1DB4BA"/>
    <path d="M60.812 260.817L65.155 265.157L48.526 281.809L44.1831 277.47L60.812 260.817Z" fill="#1DB4BA"/>
    <path d="M108.909 277.426L104.57 281.772L87.9171 265.14L92.2533 260.797L108.909 277.426Z" fill="#1DB4BA"/>
    <path d="M104.556 260.79L108.899 265.126L92.2702 281.779L87.9237 277.443L104.556 260.79Z" fill="#1DB4BA"/>
    <path d="M152.65 277.399L148.314 281.742L131.661 265.113L136.001 260.77L152.65 277.399Z" fill="#1DB4BA"/>
    <path d="M148.3 260.76L152.643 265.099L136.014 281.752L131.668 277.412L148.3 260.76Z" fill="#1DB4BA"/>
    <path d="M196.394 277.368L192.055 281.715L175.405 265.082L179.745 260.739L196.394 277.368Z" fill="#1DB4BA"/>
    <path d="M192.041 260.733L196.384 265.069L179.759 281.722L175.416 277.385L192.041 260.733Z" fill="#1DB4BA"/>
    <path d="M240.142 277.341L235.799 281.684L219.15 265.055L223.486 260.709L240.142 277.341Z" fill="#1DB4BA"/>
    <path d="M235.785 260.702L240.132 265.038L223.503 281.694L219.156 277.355L235.785 260.702Z" fill="#1DB4BA"/>
    <path d="M65.1956 321.457L60.8559 325.8L44.2032 309.171L48.5396 304.824L65.1956 321.457Z" fill="#1DB4BA"/>
    <path d="M60.8424 304.818L65.1855 309.154L48.5564 325.807L44.21 321.47L60.8424 304.818Z" fill="#1DB4BA"/>
    <path d="M108.936 321.427L104.6 325.77L87.9475 309.141L92.2837 304.797L108.936 321.427Z" fill="#1DB4BA"/>
    <path d="M104.587 304.787L108.93 309.127L92.2972 325.78L87.9542 321.44L104.587 304.787Z" fill="#1DB4BA"/>
    <path d="M152.68 321.396L148.344 325.743L131.688 309.11L136.028 304.767L152.68 321.396Z" fill="#1DB4BA"/>
    <path d="M148.328 304.76L152.674 309.097L136.042 325.749L131.698 321.413L148.328 304.76Z" fill="#1DB4BA"/>
    <path d="M196.425 321.369L192.085 325.715L175.432 309.083L179.775 304.737L196.425 321.369Z" fill="#1DB4BA"/>
    <path d="M192.071 304.73L196.414 309.07L179.785 325.722L175.442 321.383L192.071 304.73Z" fill="#1DB4BA"/>
    <path d="M240.165 321.339L235.829 325.685L219.18 309.053L223.516 304.71L240.165 321.339Z" fill="#1DB4BA"/>
    <path d="M235.816 304.703L240.159 309.039L223.53 325.692L219.183 321.356L235.816 304.703Z" fill="#1DB4BA"/>
    <path d="M65.2226 362.384L60.8796 366.728L44.2302 350.098L48.5699 345.755L65.2226 362.384Z" fill="#1DB4BA"/>
    <path d="M60.8696 345.745L65.2125 350.088L48.5836 366.738L44.2406 362.398L60.8696 345.745Z" fill="#1DB4BA"/>
    <path d="M108.967 362.354L104.627 366.701L87.9745 350.072L92.3107 345.728L108.967 362.354Z" fill="#1DB4BA"/>
    <path d="M104.614 345.718L108.957 350.058L92.3275 366.707L87.9812 362.371L104.614 345.718Z" fill="#1DB4BA"/>
    <path d="M152.707 362.331L148.371 366.674L131.719 350.041L136.055 345.698L152.707 362.331Z" fill="#1DB4BA"/>
    <path d="M148.358 345.691L152.701 350.028L136.068 366.68L131.725 362.341L148.358 345.691Z" fill="#1DB4BA"/>
    <path d="M196.452 362.3L192.115 366.643L175.459 350.011L179.799 345.668L196.452 362.3Z" fill="#1DB4BA"/>
    <path d="M192.099 345.661L196.445 349.997L179.813 366.65L175.47 362.314L192.099 345.661Z" fill="#1DB4BA"/>
    <path d="M240.196 362.27L235.856 366.613L219.203 349.984L223.54 345.637L240.196 362.27Z" fill="#1DB4BA"/>
    <path d="M235.843 345.631L240.186 349.967L223.557 366.623L219.21 362.283L235.843 345.631Z" fill="#1DB4BA"/>
    <path d="M65.0808 147.108L60.7377 151.451L44.0885 134.822L48.4247 130.476L65.0808 147.108Z" fill="#1DB4BA"/>
    <path d="M60.7277 130.469L65.0707 134.806L48.4417 151.462L44.0953 147.122L60.7277 130.469Z" fill="#1DB4BA"/>
    <path d="M108.822 147.078L104.485 151.421L87.8327 134.792L92.1689 130.449L108.822 147.078Z" fill="#1DB4BA"/>
    <path d="M104.472 130.439L108.815 134.778L92.1825 151.431L87.8394 147.092L104.472 130.439Z" fill="#1DB4BA"/>
    <path d="M152.566 147.051L148.23 151.394L131.573 134.765L135.913 130.419L152.566 147.051Z" fill="#1DB4BA"/>
    <path d="M148.212 130.412L152.559 134.748L135.926 151.404L131.584 147.065L148.212 130.412Z" fill="#1DB4BA"/>
    <path d="M196.31 147.021L191.97 151.364L175.318 134.735L179.657 130.392L196.31 147.021Z" fill="#1DB4BA"/>
    <path d="M191.957 130.382L196.3 134.721L179.671 151.374L175.328 147.034L191.957 130.382Z" fill="#1DB4BA"/>
    <path d="M240.051 146.99L235.714 151.337L219.062 134.708L223.401 130.361L240.051 146.99Z" fill="#1DB4BA"/>
    <path d="M235.701 130.354L240.044 134.691L223.412 151.343L219.068 147.007L235.701 130.354Z" fill="#1DB4BA"/>
    <path d="M65.1079 191.106L60.7682 195.449L44.1188 178.82L48.4551 174.477L65.1079 191.106Z" fill="#1DB4BA"/>
    <path d="M60.7547 174.47L65.0977 178.806L48.472 195.459L44.1256 191.123L60.7547 174.47Z" fill="#1DB4BA"/>
    <path d="M108.852 191.079L104.512 195.422L87.8631 178.793L92.1993 174.446L108.852 191.079Z" fill="#1DB4BA"/>
    <path d="M104.499 174.44L108.845 178.776L92.2127 195.432L87.8698 191.092L104.499 174.44Z" fill="#1DB4BA"/>
    <path d="M152.596 191.048L148.256 195.391L131.604 178.762L135.943 174.419L152.596 191.048Z" fill="#1DB4BA"/>
    <path d="M148.243 174.413L152.586 178.749L135.957 195.402L131.614 191.062L148.243 174.413Z" fill="#1DB4BA"/>
    <path d="M196.34 191.018L192.001 195.365L175.348 178.735L179.684 174.389L196.34 191.018Z" fill="#1DB4BA"/>
    <path d="M191.987 174.382L196.33 178.719L179.701 195.375L175.355 191.035L191.987 174.382Z" fill="#1DB4BA"/>
    <path d="M240.081 190.991L235.745 195.334L219.092 178.705L223.428 174.362L240.081 190.991Z" fill="#1DB4BA"/>
    <path d="M235.731 174.352L240.074 178.692L223.442 195.344L219.099 191.005L235.731 174.352Z" fill="#1DB4BA"/>
    <path d="M65.1348 232.037L60.7953 236.38L44.1426 219.751L48.4856 215.408L65.1348 232.037Z" fill="#1DB4BA"/>
    <path d="M60.7818 215.398L65.1247 219.737L48.4956 236.39L44.1526 232.05L60.7818 215.398Z" fill="#1DB4BA"/>
    <path d="M108.875 232.006L104.539 236.353L87.89 219.72L92.2262 215.377L108.875 232.006Z" fill="#1DB4BA"/>
    <path d="M104.526 215.367L108.869 219.707L92.2399 236.36L87.8934 232.023L104.526 215.367Z" fill="#1DB4BA"/>
    <path d="M152.62 231.98L148.284 236.322L131.631 219.693L135.97 215.35L152.62 231.98Z" fill="#1DB4BA"/>
    <path d="M148.267 215.34L152.616 219.68L135.984 236.329L131.641 231.993L148.267 215.34Z" fill="#1DB4BA"/>
    <path d="M196.367 231.949L192.024 236.296L175.375 219.663L179.715 215.32L196.367 231.949Z" fill="#1DB4BA"/>
    <path d="M192.014 215.31L196.357 219.65L179.728 236.302L175.385 231.963L192.014 215.31Z" fill="#1DB4BA"/>
    <path d="M240.111 231.922L235.772 236.265L219.119 219.636L223.455 215.29L240.111 231.922Z" fill="#1DB4BA"/>
    <path d="M235.758 215.283L240.101 219.623L223.469 236.272L219.126 231.936L235.758 215.283Z" fill="#1DB4BA"/>
    <path d="M64.9929 16.7576L60.6532 21.1039L44.0007 4.47486L48.3402 0.128521L64.9929 16.7576Z" fill="#1DB4BA"/>
    <path d="M60.6399 0.121802L64.9829 4.45808L48.3538 21.1107L44.0075 16.7745L60.6399 0.121802Z" fill="#1DB4BA"/>
    <path d="M108.734 16.7306L104.398 21.0736L87.7483 4.44456L92.0845 0.101515L108.734 16.7306Z" fill="#1DB4BA"/>
    <path d="M104.384 0.0913009L108.727 4.43096L92.098 21.0837L87.7516 16.744L104.384 0.0913009Z" fill="#1DB4BA"/>
    <path d="M152.481 16.7002L148.142 21.0465L131.489 4.41746L135.829 0.0710327L152.481 16.7002Z" fill="#1DB4BA"/>
    <path d="M148.125 0.0643683L152.474 4.40057L135.842 21.0533L131.499 16.717L148.125 0.0643683Z" fill="#1DB4BA"/>
    <path d="M196.226 16.6732L191.882 21.0161L175.233 4.38706L179.569 0.044102L196.226 16.6732Z" fill="#1DB4BA"/>
    <path d="M191.872 0.0338596L196.215 4.37352L179.586 21.0262L175.24 16.6866L191.872 0.0338596Z" fill="#1DB4BA"/>
    <path d="M239.966 16.6426L235.63 20.989L218.977 4.35661L223.314 0.0135681L239.966 16.6426Z" fill="#1DB4BA"/>
    <path d="M235.616 0.00347135L239.96 4.34313L223.327 20.9958L218.984 16.6596L235.616 0.00347135Z" fill="#1DB4BA"/>
    <path d="M65.02 60.7584L60.6838 65.1013L44.0311 48.4723L48.3673 44.1293L65.02 60.7584Z" fill="#1DB4BA"/>
    <path d="M60.6702 44.1192L65.0132 48.4588L48.3808 65.1115L44.0378 60.7719L60.6702 44.1192Z" fill="#1DB4BA"/>
    <path d="M108.764 60.7279L104.428 65.0744L87.7719 48.4453L92.1149 44.0989L108.764 60.7279Z" fill="#1DB4BA"/>
    <path d="M104.411 44.0922L108.757 48.4285L92.125 65.0811L87.7819 60.7449L104.411 44.0922Z" fill="#1DB4BA"/>
    <path d="M152.508 60.701L148.169 65.044L131.516 48.415L135.859 44.0719L152.508 60.701Z" fill="#1DB4BA"/>
    <path d="M148.155 44.0616L152.498 48.4013L135.873 65.054L131.526 60.7144L148.155 44.0616Z" fill="#1DB4BA"/>
    <path d="M196.249 60.6705L191.913 65.0169L175.263 48.3844L179.6 44.0415L196.249 60.6705Z" fill="#1DB4BA"/>
    <path d="M191.899 44.0347L196.242 48.3709L179.613 65.0237L175.27 60.6875L191.899 44.0347Z" fill="#1DB4BA"/>
    <path d="M239.997 60.6435L235.657 64.9866L219.004 48.3575L223.344 44.0145L239.997 60.6435Z" fill="#1DB4BA"/>
    <path d="M235.643 44.0044L239.99 48.3441L223.357 64.9967L219.014 60.6571L235.643 44.0044Z" fill="#1DB4BA"/>
    <path d="M65.0504 101.689L60.7109 106.032L44.0582 89.4033L48.3944 85.057L65.0504 101.689Z" fill="#1DB4BA"/>
    <path d="M60.6974 85.0501L65.0403 89.3897L48.4112 106.039L44.065 101.703L60.6974 85.0501Z" fill="#1DB4BA"/>
    <path d="M108.791 101.659L104.455 106.005L87.8022 89.3728L92.1386 85.0298L108.791 101.659Z" fill="#1DB4BA"/>
    <path d="M104.441 85.0197L108.784 89.3594L92.152 106.012L87.8091 101.672L104.441 85.0197Z" fill="#1DB4BA"/>
    <path d="M152.535 101.632L148.199 105.975L131.543 89.3458L135.883 84.9995L152.535 101.632Z" fill="#1DB4BA"/>
    <path d="M148.182 84.9927L152.529 89.3323L135.896 105.982L131.553 101.645L148.182 84.9927Z" fill="#1DB4BA"/>
    <path d="M196.279 101.601L191.94 105.948L175.287 89.3154L179.627 84.9724L196.279 101.601Z" fill="#1DB4BA"/>
    <path d="M191.926 84.9623L196.269 89.3019L179.64 105.955L175.294 101.615L191.926 84.9623Z" fill="#1DB4BA"/>
    <path d="M240.02 101.574L235.684 105.917L219.035 89.285L223.371 84.942L240.02 101.574Z" fill="#1DB4BA"/>
    <path d="M235.671 84.9353L240.013 89.2716L223.385 105.924L219.038 101.588L235.671 84.9353Z" fill="#1DB4BA"/>
    <path d="M279.641 407.662L275.305 412.008L258.649 395.379L262.988 391.033L279.641 407.662Z" fill="#1DB4BA"/>
    <path d="M275.288 391.026L279.631 395.362L263.002 412.015L258.659 407.675L275.288 391.026Z" fill="#1DB4BA"/>
    <path d="M323.385 407.635L319.045 411.978L302.393 395.349L306.729 391.006L323.385 407.635Z" fill="#1DB4BA"/>
    <path d="M319.032 390.996L323.375 395.335L306.746 411.988L302.399 407.645L319.032 390.996Z" fill="#1DB4BA"/>
    <path d="M367.126 407.604L362.79 411.951L346.137 395.318L350.473 390.975L367.126 407.604Z" fill="#1DB4BA"/>
    <path d="M362.776 390.965L367.119 395.305L350.487 411.958L346.144 407.621L362.776 390.965Z" fill="#1DB4BA"/>
    <path d="M410.87 407.577L406.534 411.92L389.878 395.288L394.221 390.945L410.87 407.577Z" fill="#1DB4BA"/>
    <path d="M406.517 390.938L410.863 395.275L394.231 411.927L389.888 407.591L406.517 390.938Z" fill="#1DB4BA"/>
    <path d="M454.614 407.547L450.274 411.89L433.625 395.264L437.961 390.915L454.614 407.547Z" fill="#1DB4BA"/>
    <path d="M450.261 390.908L454.604 395.248L437.978 411.9L433.629 407.561L450.261 390.908Z" fill="#1DB4BA"/>
    <path d="M279.671 451.663L275.328 456.006L258.679 439.377L263.019 435.034L279.671 451.663Z" fill="#1DB4BA"/>
    <path d="M275.318 435.024L279.661 439.363L263.032 456.016L258.689 451.676L275.318 435.024Z" fill="#1DB4BA"/>
    <path d="M323.412 451.632L319.076 455.979L302.423 439.346L306.759 435.003L323.412 451.632Z" fill="#1DB4BA"/>
    <path d="M319.062 434.993L323.405 439.333L306.773 455.985L302.43 451.649L319.062 434.993Z" fill="#1DB4BA"/>
    <path d="M367.156 451.605L362.82 455.948L346.164 439.316L350.503 434.973L367.156 451.605Z" fill="#1DB4BA"/>
    <path d="M362.803 434.966L367.149 439.306L350.517 455.955L346.174 451.619L362.803 434.966Z" fill="#1DB4BA"/>
    <path d="M410.9 451.575L406.561 455.918L389.908 439.292L394.248 434.946L410.9 451.575Z" fill="#1DB4BA"/>
    <path d="M406.547 434.939L410.89 439.275L394.261 455.928L389.918 451.588L406.547 434.939Z" fill="#1DB4BA"/>
    <path d="M454.644 451.548L450.305 455.891L433.652 439.262L437.988 434.919L454.644 451.548Z" fill="#1DB4BA"/>
    <path d="M450.291 434.909L454.634 439.248L438.002 455.901L433.659 451.558L450.291 434.909Z" fill="#1DB4BA"/>
    <path d="M279.695 492.594L275.359 496.937L258.706 480.304L263.046 475.961L279.695 492.594Z" fill="#1DB4BA"/>
    <path d="M275.342 475.954L279.688 480.291L263.059 496.943L258.716 492.607L275.342 475.954Z" fill="#1DB4BA"/>
    <path d="M323.442 492.563L319.099 496.906L302.45 480.277L306.786 475.931L323.442 492.563Z" fill="#1DB4BA"/>
    <path d="M319.086 475.924L323.432 480.26L306.803 496.916L302.457 492.577L319.086 475.924Z" fill="#1DB4BA"/>
    <path d="M367.183 492.533L362.847 496.876L346.194 480.25L350.53 475.904L367.183 492.533Z" fill="#1DB4BA"/>
    <path d="M362.833 475.894L367.176 480.237L350.544 496.886L346.201 492.546L362.833 475.894Z" fill="#1DB4BA"/>
    <path d="M410.927 492.503L406.591 496.852L389.935 480.22L394.275 475.877L410.927 492.503Z" fill="#1DB4BA"/>
    <path d="M406.574 475.867L410.921 480.206L394.288 496.859L389.945 492.519L406.574 475.867Z" fill="#1DB4BA"/>
    <path d="M454.672 492.479L450.332 496.822L433.679 480.189L438.016 475.846L454.672 492.479Z" fill="#1DB4BA"/>
    <path d="M450.318 475.84L454.661 480.176L438.032 496.829L433.686 492.492L450.318 475.84Z" fill="#1DB4BA"/>
    <path d="M279.553 277.314L275.213 281.657L258.564 265.028L262.904 260.685L279.553 277.314Z" fill="#1DB4BA"/>
    <path d="M275.2 260.675L279.546 265.015L262.917 281.667L258.574 277.328L275.2 260.675Z" fill="#1DB4BA"/>
    <path d="M323.301 277.284L318.958 281.63L302.308 264.998L306.645 260.655L323.301 277.284Z" fill="#1DB4BA"/>
    <path d="M318.944 260.648L323.291 264.984L306.658 281.637L302.315 277.301L318.944 260.648Z" fill="#1DB4BA"/>
    <path d="M367.041 277.257L362.705 281.6L346.049 264.971L350.389 260.628L367.041 277.257Z" fill="#1DB4BA"/>
    <path d="M362.692 260.618L367.034 264.957L350.402 281.61L346.059 277.27L362.692 260.618Z" fill="#1DB4BA"/>
    <path d="M410.785 277.226L406.446 281.573L389.793 264.94L394.133 260.597L410.785 277.226Z" fill="#1DB4BA"/>
    <path d="M406.432 260.591L410.775 264.927L394.146 281.58L389.803 277.243L406.432 260.591Z" fill="#1DB4BA"/>
    <path d="M454.53 277.199L450.19 281.542L433.537 264.913L437.874 260.567L454.53 277.199Z" fill="#1DB4BA"/>
    <path d="M450.176 260.56L454.519 264.897L437.89 281.553L433.544 277.213L450.176 260.56Z" fill="#1DB4BA"/>
    <path d="M279.583 321.315L275.244 325.658L258.591 309.029L262.931 304.683L279.583 321.315Z" fill="#1DB4BA"/>
    <path d="M275.23 304.676L279.573 309.012L262.944 325.665L258.598 321.329L275.23 304.676Z" fill="#1DB4BA"/>
    <path d="M323.324 321.285L318.988 325.628L302.339 308.999L306.675 304.656L323.324 321.285Z" fill="#1DB4BA"/>
    <path d="M318.974 304.645L323.317 308.985L306.688 325.638L302.342 321.298L318.974 304.645Z" fill="#1DB4BA"/>
    <path d="M367.068 321.254L362.732 325.601L346.08 308.968L350.419 304.625L367.068 321.254Z" fill="#1DB4BA"/>
    <path d="M362.715 304.619L367.065 308.955L350.432 325.611L346.089 321.271L362.715 304.619Z" fill="#1DB4BA"/>
    <path d="M410.816 321.227L406.473 325.574L389.824 308.941L394.16 304.595L410.816 321.227Z" fill="#1DB4BA"/>
    <path d="M406.463 304.588L410.806 308.928L394.177 325.58L389.83 321.241L406.463 304.588Z" fill="#1DB4BA"/>
    <path d="M454.557 321.197L450.221 325.543L433.568 308.911L437.904 304.568L454.557 321.197Z" fill="#1DB4BA"/>
    <path d="M450.207 304.561L454.55 308.897L437.918 325.55L433.574 321.214L450.207 304.561Z" fill="#1DB4BA"/>
    <path d="M279.611 362.243L275.271 366.586L258.618 349.957L262.958 345.614L279.611 362.243Z" fill="#1DB4BA"/>
    <path d="M275.257 345.604L279.6 349.946L262.971 366.596L258.628 362.256L275.257 345.604Z" fill="#1DB4BA"/>
    <path d="M323.355 362.212L319.015 366.559L302.362 349.93L306.702 345.587L323.355 362.212Z" fill="#1DB4BA"/>
    <path d="M319.001 345.576L323.344 349.916L306.712 366.565L302.369 362.229L319.001 345.576Z" fill="#1DB4BA"/>
    <path d="M367.096 362.189L362.759 366.532L346.106 349.899L350.446 345.556L367.096 362.189Z" fill="#1DB4BA"/>
    <path d="M362.746 345.549L367.089 349.886L350.46 366.538L346.113 362.199L362.746 345.549Z" fill="#1DB4BA"/>
    <path d="M410.839 362.158L406.5 366.501L389.85 349.869L394.19 345.526L410.839 362.158Z" fill="#1DB4BA"/>
    <path d="M406.486 345.519L410.833 349.855L394.204 366.508L389.861 362.172L406.486 345.519Z" fill="#1DB4BA"/>
    <path d="M454.587 362.128L450.244 366.471L433.595 349.842L437.931 345.495L454.587 362.128Z" fill="#1DB4BA"/>
    <path d="M450.231 345.489L454.577 349.825L437.948 366.481L433.601 362.141L450.231 345.489Z" fill="#1DB4BA"/>
    <path d="M279.469 146.967L275.129 151.31L258.476 134.681L262.813 130.334L279.469 146.967Z" fill="#1DB4BA"/>
    <path d="M275.115 130.328L279.459 134.664L262.829 151.32L258.483 146.98L275.115 130.328Z" fill="#1DB4BA"/>
    <path d="M323.209 146.936L318.873 151.279L302.22 134.65L306.56 130.307L323.209 146.936Z" fill="#1DB4BA"/>
    <path d="M318.86 130.297L323.203 134.637L306.57 151.289L302.227 146.95L318.86 130.297Z" fill="#1DB4BA"/>
    <path d="M366.954 146.909L362.617 151.252L345.961 134.623L350.304 130.277L366.954 146.909Z" fill="#1DB4BA"/>
    <path d="M362.6 130.27L366.947 134.606L350.318 151.262L345.971 146.923L362.6 130.27Z" fill="#1DB4BA"/>
    <path d="M410.698 146.879L406.358 151.222L389.709 134.593L394.045 130.25L410.698 146.879Z" fill="#1DB4BA"/>
    <path d="M406.344 130.24L410.691 134.579L394.062 151.232L389.716 146.892L406.344 130.24Z" fill="#1DB4BA"/>
    <path d="M454.442 146.849L450.102 151.195L433.453 134.566L437.789 130.219L454.442 146.849Z" fill="#1DB4BA"/>
    <path d="M450.092 130.213L454.435 134.549L437.803 151.202L433.46 146.865L450.092 130.213Z" fill="#1DB4BA"/>
    <path d="M279.496 190.964L275.159 195.31L258.507 178.678L262.843 174.335L279.496 190.964Z" fill="#1DB4BA"/>
    <path d="M275.146 174.328L279.489 178.664L262.856 195.317L258.513 190.981L275.146 174.328Z" fill="#1DB4BA"/>
    <path d="M323.24 190.937L318.904 195.28L302.247 178.651L306.587 174.305L323.24 190.937Z" fill="#1DB4BA"/>
    <path d="M318.89 174.298L323.233 178.634L306.6 195.29L302.258 190.951L318.89 174.298Z" fill="#1DB4BA"/>
    <path d="M366.984 190.907L362.644 195.25L345.992 178.621L350.331 174.278L366.984 190.907Z" fill="#1DB4BA"/>
    <path d="M362.631 174.271L366.974 178.607L350.345 195.26L346.002 190.92L362.631 174.271Z" fill="#1DB4BA"/>
    <path d="M410.728 190.876L406.389 195.223L389.736 178.594L394.075 174.247L410.728 190.876Z" fill="#1DB4BA"/>
    <path d="M406.375 174.24L410.718 178.577L394.089 195.233L389.743 190.893L406.375 174.24Z" fill="#1DB4BA"/>
    <path d="M454.469 190.849L450.133 195.192L433.483 178.563L437.819 174.22L454.469 190.849Z" fill="#1DB4BA"/>
    <path d="M450.119 174.21L454.462 178.55L437.833 195.202L433.487 190.863L450.119 174.21Z" fill="#1DB4BA"/>
    <path d="M279.526 231.895L275.183 236.238L258.534 219.609L262.87 215.266L279.526 231.895Z" fill="#1DB4BA"/>
    <path d="M275.173 215.256L279.516 219.595L262.887 236.248L258.541 231.909L275.173 215.256Z" fill="#1DB4BA"/>
    <path d="M323.267 231.865L318.931 236.211L302.278 219.582L306.614 215.236L323.267 231.865Z" fill="#1DB4BA"/>
    <path d="M318.917 215.225L323.26 219.565L306.628 236.218L302.285 231.882L318.917 215.225Z" fill="#1DB4BA"/>
    <path d="M367.011 231.838L362.675 236.181L346.019 219.552L350.358 215.209L367.011 231.838Z" fill="#1DB4BA"/>
    <path d="M362.658 215.198L367.004 219.538L350.372 236.187L346.029 231.851L362.658 215.198Z" fill="#1DB4BA"/>
    <path d="M410.755 231.807L406.415 236.154L389.763 219.521L394.102 215.178L410.755 231.807Z" fill="#1DB4BA"/>
    <path d="M406.402 215.168L410.745 219.508L394.116 236.16L389.773 231.824L406.402 215.168Z" fill="#1DB4BA"/>
    <path d="M454.496 231.78L450.16 236.123L433.507 219.494L437.847 215.148L454.496 231.78Z" fill="#1DB4BA"/>
    <path d="M450.146 215.141L454.489 219.481L437.857 236.13L433.514 231.794L450.146 215.141Z" fill="#1DB4BA"/>
    <path d="M279.384 16.6157L275.041 20.9621L258.392 4.33301L262.728 -0.0134094L279.384 16.6157Z" fill="#1DB4BA"/>
    <path d="M275.031 -0.0200128L279.374 4.31619L262.742 20.9689L258.399 16.6326L275.031 -0.0200128Z" fill="#1DB4BA"/>
    <path d="M323.125 16.5887L318.789 20.9317L302.133 4.30265L306.472 -0.0403096L323.125 16.5887Z" fill="#1DB4BA"/>
    <path d="M318.775 -0.050552L323.118 4.28911L306.486 20.9417L302.143 16.6022L318.775 -0.050552Z" fill="#1DB4BA"/>
    <path d="M366.869 16.5582L362.529 20.9047L345.877 4.27561L350.216 -0.070813L366.869 16.5582Z" fill="#1DB4BA"/>
    <path d="M362.516 -0.077558L366.859 4.25872L350.23 20.9114L345.887 16.5752L362.516 -0.077558Z" fill="#1DB4BA"/>
    <path d="M410.613 16.5313L406.274 20.8743L389.621 4.24525L393.957 -0.0977957L410.613 16.5313Z" fill="#1DB4BA"/>
    <path d="M406.26 -0.107895L410.603 4.23169L393.974 20.8844L389.628 16.5447L406.26 -0.107895Z" fill="#1DB4BA"/>
    <path d="M454.354 16.5009L450.018 20.8473L433.365 4.21486L437.705 -0.128102L454.354 16.5009Z" fill="#1DB4BA"/>
    <path d="M450.004 -0.138351L454.347 4.20131L437.715 20.8539L433.372 16.5177L450.004 -0.138351Z" fill="#1DB4BA"/>
    <path d="M279.408 60.6165L275.072 64.9596L258.422 48.3305L262.759 43.9875L279.408 60.6165Z" fill="#1DB4BA"/>
    <path d="M275.058 43.9773L279.405 48.3169L262.772 64.9696L258.429 60.63L275.058 43.9773Z" fill="#1DB4BA"/>
    <path d="M323.155 60.5861L318.816 64.9325L302.163 48.3034L306.503 43.9571L323.155 60.5861Z" fill="#1DB4BA"/>
    <path d="M318.802 43.9504L323.149 48.2866L306.516 64.9393L302.173 60.6031L318.802 43.9504Z" fill="#1DB4BA"/>
    <path d="M366.9 60.5591L362.56 64.9022L345.907 48.2731L350.244 43.9301L366.9 60.5591Z" fill="#1DB4BA"/>
    <path d="M362.546 43.9198L366.889 48.2595L350.26 64.9121L345.914 60.5725L362.546 43.9198Z" fill="#1DB4BA"/>
    <path d="M410.64 60.5286L406.304 64.875L389.651 48.2426L393.988 43.8996L410.64 60.5286Z" fill="#1DB4BA"/>
    <path d="M406.291 43.8928L410.634 48.2291L394.001 64.8818L389.658 60.5455L406.291 43.8928Z" fill="#1DB4BA"/>
    <path d="M454.385 60.5017L450.048 64.8446L433.392 48.2156L437.732 43.8726L454.385 60.5017Z" fill="#1DB4BA"/>
    <path d="M450.031 43.8626L454.378 48.2021L437.745 64.8549L433.402 60.5153L450.031 43.8626Z" fill="#1DB4BA"/>
    <path d="M279.438 101.548L275.099 105.891L258.446 89.2615L262.786 84.9185L279.438 101.548Z" fill="#1DB4BA"/>
    <path d="M275.085 84.9083L279.428 89.2479L262.799 105.897L258.453 101.561L275.085 84.9083Z" fill="#1DB4BA"/>
    <path d="M323.179 101.517L318.843 105.863L302.193 89.2309L306.53 84.888L323.179 101.517Z" fill="#1DB4BA"/>
    <path d="M318.829 84.8779L323.172 89.2175L306.543 105.87L302.2 101.531L318.829 84.8779Z" fill="#1DB4BA"/>
    <path d="M366.927 101.49L362.583 105.833L345.934 89.204L350.274 84.8576L366.927 101.49Z" fill="#1DB4BA"/>
    <path d="M362.57 84.8508L366.916 89.1905L350.287 105.84L345.944 101.504L362.57 84.8508Z" fill="#1DB4BA"/>
    <path d="M410.671 101.46L406.328 105.806L389.678 89.1736L394.015 84.8306L410.671 101.46Z" fill="#1DB4BA"/>
    <path d="M406.317 84.8205L410.661 89.1601L394.031 105.813L389.685 101.473L406.317 84.8205Z" fill="#1DB4BA"/>
    <path d="M454.412 101.433L450.075 105.776L433.423 89.1431L437.759 84.8002L454.412 101.433Z" fill="#1DB4BA"/>
    <path d="M450.062 84.7934L454.405 89.1297L437.772 105.782L433.429 101.446L450.062 84.7934Z" fill="#1DB4BA"/>
    <path d="M500.888 407.517L496.552 411.863L479.899 395.231L484.238 390.888L500.888 407.517Z" fill="#1DB4BA"/>
    <path d="M496.534 390.881L500.884 395.217L484.252 411.866L479.909 407.53L496.534 390.881Z" fill="#1DB4BA"/>
    <path d="M500.918 451.518L496.578 455.861L479.926 439.228L484.269 434.885L500.918 451.518Z" fill="#1DB4BA"/>
    <path d="M496.565 434.878L500.908 439.215L484.283 455.871L479.936 451.531L496.565 434.878Z" fill="#1DB4BA"/>
    <path d="M500.945 492.445L496.609 496.791L479.953 480.159L484.292 475.816L500.945 492.445Z" fill="#1DB4BA"/>
    <path d="M496.592 475.806L500.938 480.146L484.306 496.798L479.963 492.462L496.592 475.806Z" fill="#1DB4BA"/>
    <path d="M500.803 277.169L496.464 281.512L479.811 264.883L484.15 260.537L500.803 277.169Z" fill="#1DB4BA"/>
    <path d="M496.45 260.53L500.793 264.87L484.164 281.519L479.821 277.183L496.45 260.53Z" fill="#1DB4BA"/>
    <path d="M500.833 321.17L496.494 325.509L479.841 308.88L484.177 304.537L500.833 321.17Z" fill="#1DB4BA"/>
    <path d="M496.481 304.527L500.824 308.867L484.195 325.52L479.852 321.18L496.481 304.527Z" fill="#1DB4BA"/>
    <path d="M500.861 362.098L496.525 366.44L479.868 349.811L484.208 345.465L500.861 362.098Z" fill="#1DB4BA"/>
    <path d="M496.507 345.458L500.854 349.798L484.221 366.447L479.878 362.111L496.507 345.458Z" fill="#1DB4BA"/>
    <path d="M500.719 146.821L496.379 151.164L479.727 134.532L484.066 130.189L500.719 146.821Z" fill="#1DB4BA"/>
    <path d="M496.366 130.182L500.709 134.518L484.08 151.171L479.737 146.832L496.366 130.182Z" fill="#1DB4BA"/>
    <path d="M500.749 190.819L496.406 195.165L479.757 178.533L484.093 174.19L500.749 190.819Z" fill="#1DB4BA"/>
    <path d="M496.393 174.18L500.739 178.519L484.11 195.172L479.764 190.832L496.393 174.18Z" fill="#1DB4BA"/>
    <path d="M500.773 231.75L496.433 236.093L479.781 219.464L484.124 215.117L500.773 231.75Z" fill="#1DB4BA"/>
    <path d="M496.42 215.111L500.763 219.447L484.137 236.103L479.791 231.763L496.42 215.111Z" fill="#1DB4BA"/>
    <path d="M500.631 16.4704L496.291 20.8168L479.642 4.1844L483.978 -0.158643L500.631 16.4704Z" fill="#1DB4BA"/>
    <path d="M496.278 -0.165357L500.621 4.17092L483.995 20.8236L479.646 16.484L496.278 -0.165357Z" fill="#1DB4BA"/>
    <path d="M500.658 60.4713L496.322 64.8144L479.669 48.1853L484.005 43.8389L500.658 60.4713Z" fill="#1DB4BA"/>
    <path d="M496.308 43.832L500.651 48.1717L484.019 64.821L479.676 60.4848L496.308 43.832Z" fill="#1DB4BA"/>
    <path d="M500.689 101.399L496.349 105.742L479.696 89.1128L484.032 84.7698L500.689 101.399Z" fill="#1DB4BA"/>
    <path d="M496.335 84.763L500.678 89.0993L484.049 105.752L479.703 101.412L496.335 84.763Z" fill="#1DB4BA"/>
    </g>
    <path d="M299.479 138.951H290.702V117H299.479V138.951Z" fill="#fccb06"/>
    <path d="M299.479 138.951H290.702V117H299.479V138.951Z" fill="#fccb06"/>
    <path d="M299.479 501.184H290.702V479.232H299.479V501.184Z" fill="#fccb06"/>
    <path d="M124.955 313.482H103V304.702H124.955V313.482Z" fill="#fccb06"/>
    <path d="M124.955 313.482H103V304.702H124.955V313.482Z" fill="#fccb06"/>
    <path d="M487.184 313.482H465.229V304.702H487.184V313.482Z" fill="#fccb06"/>
    <path d="M171.681 191.888L156.156 176.367L162.367 170.156L177.888 185.681L171.681 191.888Z" fill="#fccb06"/>
    <path d="M171.681 191.888L156.156 176.367L162.367 170.156L177.888 185.681L171.681 191.888Z" fill="#fccb06"/>
    <path d="M427.817 448.028L412.292 432.503L418.499 426.292L434.028 441.817L427.817 448.028Z" fill="#fccb06"/>
    <path d="M162.367 448.028L156.156 441.817L171.681 426.292L177.888 432.503L162.367 448.028Z" fill="#fccb06"/>
    <path d="M162.367 448.028L156.156 441.817L171.681 426.292L177.888 432.503L162.367 448.028Z" fill="#fccb06"/>
    <path d="M418.499 191.888L412.292 185.681L427.817 170.156L434.028 176.367L418.499 191.888Z" fill="#fccb06"/>
    <path d="M252.037 144.432L247.035 123.055L255.583 121.053L260.588 142.43L252.037 144.432Z" fill="#fccb06"/>
    <path d="M252.037 144.432L247.035 123.055L255.583 121.053L260.588 142.43L252.037 144.432Z" fill="#fccb06"/>
    <path d="M334.601 497.131L329.596 475.751L338.147 473.751L343.149 495.129L334.601 497.131Z" fill="#fccb06"/>
    <path d="M109.059 357.149L107.056 348.598L128.43 343.596L130.432 352.144L109.059 357.149Z" fill="#fccb06"/>
    <path d="M109.059 357.149L107.056 348.598L128.43 343.596L130.432 352.144L109.059 357.149Z" fill="#fccb06"/>
    <path d="M461.754 274.588L459.748 266.037L481.125 261.035L483.128 269.586L461.754 274.588Z" fill="#fccb06"/>
    <path d="M148.217 223.103L129.565 211.526L134.191 204.066L152.843 215.64L148.217 223.103Z" fill="#fccb06"/>
    <path d="M148.217 223.103L129.565 211.526L134.191 204.066L152.843 215.64L148.217 223.103Z" fill="#fccb06"/>
    <path d="M455.989 414.118L437.337 402.541L441.967 395.081L460.619 406.658L455.989 414.118Z" fill="#fccb06"/>
    <path d="M197.526 474.623L190.066 469.989L201.643 451.337L209.103 455.967L197.526 474.623Z" fill="#fccb06"/>
    <path d="M197.526 474.623L190.066 469.989L201.643 451.337L209.103 455.967L197.526 474.623Z" fill="#fccb06"/>
    <path d="M388.537 166.847L381.077 162.217L392.658 143.561L400.118 148.195L388.537 166.847Z" fill="#fccb06"/>
    <path d="M228.251 152.571L220.15 132.167L228.316 128.925L236.411 149.333L228.251 152.571Z" fill="#fccb06"/>
    <path d="M228.251 152.571L220.15 132.167L228.316 128.925L236.411 149.333L228.251 152.571Z" fill="#fccb06"/>
    <path d="M361.868 489.259L353.77 468.854L361.932 465.612L370.031 486.02L361.868 489.259Z" fill="#fccb06"/>
    <path d="M118.167 384.031L114.925 375.871L135.333 367.773L138.571 375.932L118.167 384.031Z" fill="#fccb06"/>
    <path d="M118.167 384.031L114.925 375.871L135.333 367.773L138.571 375.932L118.167 384.031Z" fill="#fccb06"/>
    <path d="M454.851 250.411L451.612 242.248L472.017 234.15L475.256 242.312L454.851 250.411Z" fill="#fccb06"/>
    <path d="M137.15 245.679L116.995 236.976L120.477 228.915L140.631 237.618L137.15 245.679Z" fill="#fccb06"/>
    <path d="M137.15 245.679L116.995 236.976L120.477 228.915L140.631 237.618L137.15 245.679Z" fill="#fccb06"/>
    <path d="M469.707 389.269L449.552 380.566L453.031 372.505L473.185 381.207L469.707 389.269Z" fill="#fccb06"/>
    <path d="M222.976 487.186L214.915 483.707L223.615 463.552L231.679 467.031L222.976 487.186Z" fill="#fccb06"/>
    <path d="M222.976 487.186L214.915 483.707L223.615 463.552L231.679 467.031L222.976 487.186Z" fill="#fccb06"/>
    <path d="M366.569 154.631L358.505 151.15L367.204 130.995L375.269 134.477L366.569 154.631Z" fill="#fccb06"/>
    <path d="M194.335 171.926L181.799 153.902L189.006 148.887L201.542 166.911L194.335 171.926Z" fill="#fccb06"/>
    <path d="M194.335 171.926L181.799 153.902L189.006 148.887L201.542 166.911L194.335 171.926Z" fill="#fccb06"/>
    <path d="M401.178 469.293L388.642 451.27L395.849 446.258L408.382 464.278L401.178 469.293Z" fill="#fccb06"/>
    <path d="M139.902 422.385L134.89 415.175L152.911 402.642L157.926 409.849L139.902 422.385Z" fill="#fccb06"/>
    <path d="M139.902 422.385L134.89 415.175L152.911 402.642L157.926 409.849L139.902 422.385Z" fill="#fccb06"/>
    <path d="M437.27 215.542L432.258 208.335L450.282 195.799L455.293 203.006L437.27 215.542Z" fill="#fccb06"/>
    <path d="M126.853 283.345L105.249 279.468L106.799 270.825L128.406 274.702L126.853 283.345Z" fill="#fccb06"/>
    <path d="M126.853 283.345L105.249 279.468L106.799 270.825L128.406 274.702L126.853 283.345Z" fill="#fccb06"/>
    <path d="M483.385 347.358L461.778 343.478L463.328 334.836L484.935 338.716L483.385 347.358Z" fill="#fccb06"/>
    <path d="M265.468 498.938L256.822 497.388L260.702 475.777L269.345 477.328L265.468 498.938Z" fill="#fccb06"/>
    <path d="M265.468 498.938L256.822 497.388L260.702 475.777L269.345 477.328L265.468 498.938Z" fill="#fccb06"/>
    <path d="M329.478 142.406L320.839 140.853L324.716 119.246L333.358 120.799L329.478 142.406Z" fill="#fccb06"/>
</svg>
