<svg width="385" height="385" viewBox="0 0 385 385" fill="none" xmlns="http://www.w3.org/2000/svg">
    <path d="M196.479 21.9514H187.702V-1.63615e-05H196.479V21.9514Z" fill="#fccb06"/>
    <path d="M196.479 21.9514H187.702V-1.63615e-05H196.479V21.9514Z" fill="#fccb06"/>
    <path d="M196.479 384.184H187.702V362.232H196.479V384.184Z" fill="#fccb06"/>
    <path d="M21.9548 196.482H0V187.702H21.9548V196.482Z" fill="#fccb06"/>
    <path d="M21.9548 196.482H0V187.702H21.9548V196.482Z" fill="#fccb06"/>
    <path d="M384.184 196.482H362.229V187.702H384.184V196.482Z" fill="#fccb06"/>
    <path d="M68.6809 74.8881L53.1562 59.3667L59.3668 53.1561L74.8881 68.6808L68.6809 74.8881Z" fill="#fccb06"/>
    <path d="M68.6809 74.8881L53.1562 59.3667L59.3668 53.1561L74.8881 68.6808L68.6809 74.8881Z" fill="#fccb06"/>
    <path d="M324.817 331.028L309.292 315.503L315.499 309.292L331.028 324.817L324.817 331.028Z" fill="#fccb06"/>
    <path d="M59.3668 331.028L53.1562 324.817L68.6809 309.292L74.8881 315.503L59.3668 331.028Z" fill="#fccb06"/>
    <path d="M59.3668 331.028L53.1562 324.817L68.6809 309.292L74.8881 315.503L59.3668 331.028Z" fill="#fccb06"/>
    <path d="M315.499 74.8881L309.292 68.6808L324.817 53.1561L331.028 59.3667L315.499 74.8881Z" fill="#fccb06"/>
    <path d="M149.037 27.4325L144.035 6.05513L152.583 4.05251L157.588 25.4298L149.037 27.4325Z" fill="#fccb06"/>
    <path d="M149.037 27.4325L144.035 6.05513L152.583 4.05251L157.588 25.4298L149.037 27.4325Z" fill="#fccb06"/>
    <path d="M231.601 380.131L226.596 358.751L235.147 356.751L240.149 378.129L231.601 380.131Z" fill="#fccb06"/>
    <path d="M6.05853 240.149L4.05591 231.598L25.4299 226.596L27.4325 235.144L6.05853 240.149Z" fill="#fccb06"/>
    <path d="M6.05853 240.149L4.05591 231.598L25.4299 226.596L27.4325 235.144L6.05853 240.149Z" fill="#fccb06"/>
    <path d="M358.754 157.588L356.748 149.037L378.125 144.035L380.128 152.586L358.754 157.588Z" fill="#fccb06"/>
    <path d="M45.2165 106.103L26.5646 94.5262L31.1912 87.0661L49.8432 98.6396L45.2165 106.103Z" fill="#fccb06"/>
    <path d="M45.2165 106.103L26.5646 94.5262L31.1912 87.0661L49.8432 98.6396L45.2165 106.103Z" fill="#fccb06"/>
    <path d="M352.989 297.118L334.337 285.541L338.967 278.081L357.619 289.658L352.989 297.118Z" fill="#fccb06"/>
    <path d="M94.5261 357.623L87.0661 352.989L98.6429 334.337L106.103 338.967L94.5261 357.623Z" fill="#fccb06"/>
    <path d="M94.5261 357.623L87.0661 352.989L98.6429 334.337L106.103 338.967L94.5261 357.623Z" fill="#fccb06"/>
    <path d="M285.537 49.8466L278.077 45.2165L289.658 26.5612L297.118 31.1946L285.537 49.8466Z" fill="#fccb06"/>
    <path d="M125.251 35.5714L117.15 15.1667L125.316 11.9246L133.411 32.3327L125.251 35.5714Z" fill="#fccb06"/>
    <path d="M125.251 35.5714L117.15 15.1667L125.316 11.9246L133.411 32.3327L125.251 35.5714Z" fill="#fccb06"/>
    <path d="M258.868 372.259L250.77 351.854L258.932 348.612L267.031 369.02L258.868 372.259Z" fill="#fccb06"/>
    <path d="M15.1667 267.031L11.9247 258.871L32.3328 250.773L35.5715 258.932L15.1667 267.031Z" fill="#fccb06"/>
    <path d="M15.1667 267.031L11.9247 258.871L32.3328 250.773L35.5715 258.932L15.1667 267.031Z" fill="#fccb06"/>
    <path d="M351.851 133.411L348.612 125.248L369.017 117.15L372.256 125.312L351.851 133.411Z" fill="#fccb06"/>
    <path d="M34.1496 128.679L13.9948 119.976L17.4766 111.915L37.6314 120.618L34.1496 128.679Z" fill="#fccb06"/>
    <path d="M34.1496 128.679L13.9948 119.976L17.4766 111.915L37.6314 120.618L34.1496 128.679Z" fill="#fccb06"/>
    <path d="M366.707 272.269L346.552 263.566L350.031 255.505L370.185 264.207L366.707 272.269Z" fill="#fccb06"/>
    <path d="M119.976 370.186L111.915 366.707L120.615 346.552L128.679 350.031L119.976 370.186Z" fill="#fccb06"/>
    <path d="M119.976 370.186L111.915 366.707L120.615 346.552L128.679 350.031L119.976 370.186Z" fill="#fccb06"/>
    <path d="M263.569 37.6314L255.505 34.1495L264.204 13.9948L272.269 17.4766L263.569 37.6314Z" fill="#fccb06"/>
    <path d="M91.3348 54.9257L78.7989 36.9019L86.0056 31.8869L98.5416 49.9107L91.3348 54.9257Z" fill="#fccb06"/>
    <path d="M91.3348 54.9257L78.7989 36.9019L86.0056 31.8869L98.5416 49.9107L91.3348 54.9257Z" fill="#fccb06"/>
    <path d="M298.178 352.293L285.642 334.27L292.849 329.258L305.382 347.278L298.178 352.293Z" fill="#fccb06"/>
    <path d="M36.902 305.385L31.8903 298.175L49.9108 285.642L54.9258 292.849L36.902 305.385Z" fill="#fccb06"/>
    <path d="M36.902 305.385L31.8903 298.175L49.9108 285.642L54.9258 292.849L36.902 305.385Z" fill="#fccb06"/>
    <path d="M334.27 98.5415L329.258 91.3347L347.282 78.7988L352.293 86.0055L334.27 98.5415Z" fill="#fccb06"/>
    <path d="M23.8527 166.345L2.24911 162.468L3.79925 153.825L25.4062 157.702L23.8527 166.345Z" fill="#fccb06"/>
    <path d="M23.8527 166.345L2.24911 162.468L3.79925 153.825L25.4062 157.702L23.8527 166.345Z" fill="#fccb06"/>
    <path d="M380.385 230.358L358.778 226.478L360.328 217.836L381.935 221.716L380.385 230.358Z" fill="#fccb06"/>
    <path d="M162.468 381.938L153.822 380.388L157.702 358.777L166.345 360.328L162.468 381.938Z" fill="#fccb06"/>
    <path d="M162.468 381.938L153.822 380.388L157.702 358.777L166.345 360.328L162.468 381.938Z" fill="#fccb06"/>
    <path d="M226.478 25.4061L217.839 23.8526L221.716 2.24565L230.358 3.79917L226.478 25.4061Z" fill="#fccb06"/>
</svg>
